<?xml version="1.0" standalone="no"?>
<!DOCTYPE svg PUBLIC "-//W3C//DTD SVG 20010904//EN"
 "http://www.w3.org/TR/2001/REC-SVG-20010904/DTD/svg10.dtd">
<svg version="1.0" xmlns="http://www.w3.org/2000/svg"
 width="225.000000pt" height="225.000000pt" viewBox="0 0 225.000000 225.000000"
 preserveAspectRatio="xMidYMid meet">

<g transform="translate(0.000000,225.000000) scale(0.100000,-0.100000)"
fill="#000000" stroke="none">
<path d="M1125 2040 c-3 -5 -1 -10 4 -10 6 0 11 5 11 10 0 6 -2 10 -4 10 -3 0
-8 -4 -11 -10z"/>
<path d="M1106 2003 c-6 -14 -5 -15 5 -6 7 7 10 15 7 18 -3 3 -9 -2 -12 -12z"/>
<path d="M876 1828 c-91 -100 -126 -147 -168 -233 -41 -82 -51 -137 -45 -233
7 -106 25 -174 74 -282 l38 -82 1 88 c1 89 5 125 14 134 3 3 16 25 29 50 13
25 30 53 38 62 8 9 12 22 7 29 -4 7 -3 10 3 6 6 -4 17 3 25 16 27 40 29 74 9
124 -41 105 -36 216 15 330 12 29 22 53 20 53 -2 0 -29 -28 -60 -62z"/>
<path d="M1350 1849 c32 -74 52 -179 46 -231 -4 -25 -16 -72 -27 -105 -26 -73
-20 -112 24 -163 74 -87 120 -228 100 -309 -17 -64 0 -49 40 37 79 169 99 343
52 467 -33 89 -97 185 -183 275 l-72 75 20 -46z"/>
<path d="M1062 1845 c0 -16 2 -22 5 -12 2 9 2 23 0 30 -3 6 -5 -1 -5 -18z"/>
<path d="M117 833 c-4 -3 -7 -71 -7 -150 l0 -143 40 0 39 0 3 81 3 82 55 -82
c52 -77 56 -81 92 -81 l38 0 0 150 0 150 -40 0 -39 0 -3 -81 -3 -80 -52 80
c-48 75 -55 81 -86 81 -19 0 -37 -3 -40 -7z"/>
<path d="M516 831 c-3 -4 -23 -64 -45 -132 -22 -68 -43 -132 -47 -142 -6 -16
-2 -18 36 -15 l43 3 24 90 c33 126 34 126 48 72 9 -31 10 -59 5 -78 -7 -23 -5
-29 6 -29 8 0 20 -13 25 -30 10 -26 16 -30 50 -30 21 0 39 3 39 6 0 15 -84
270 -93 282 -11 14 -83 17 -91 3z"/>
<path d="M732 708 c6 -165 9 -168 134 -168 l84 0 0 30 c0 17 -3 30 -7 31 -5 1
-32 2 -61 3 -34 1 -56 7 -62 16 -6 8 -10 61 -10 118 l0 102 -41 0 -42 0 5
-132z"/>
<path d="M1055 828 c-3 -7 -24 -75 -49 -151 l-44 -138 41 3 c40 3 42 4 55 53
8 28 21 75 30 105 l15 55 14 -45 c7 -24 10 -59 7 -77 -5 -26 -3 -33 9 -33 9 0
18 -13 22 -30 6 -27 10 -30 46 -30 21 0 39 5 39 11 0 5 -20 73 -46 150 l-45
139 -45 0 c-27 0 -46 -5 -49 -12z"/>
<path d="M1287 834 c-4 -4 -7 -72 -7 -151 l0 -143 40 0 40 0 0 81 0 81 53 -79
c46 -69 56 -78 86 -81 20 -2 37 2 42 10 5 7 9 75 9 151 l0 137 -40 0 -40 0 0
-80 c0 -44 -3 -80 -7 -79 -5 0 -30 35 -58 77 -42 65 -55 77 -80 80 -17 2 -34
0 -38 -4z"/>
<path d="M1610 691 l0 -151 75 0 c123 0 165 37 165 143 0 117 -34 150 -157
156 l-83 3 0 -151z m142 62 c13 -11 18 -30 18 -64 0 -55 -20 -82 -58 -77 -25
3 -26 4 -24 78 0 41 1 76 2 78 1 9 47 -1 62 -15z"/>
<path d="M1962 823 c-6 -10 -27 -72 -47 -138 -21 -66 -40 -126 -42 -132 -4 -9
7 -13 35 -13 40 0 41 0 56 53 9 30 21 77 27 105 7 29 16 52 20 52 10 0 22
-103 15 -128 -5 -14 -1 -21 13 -25 11 -2 21 -15 23 -28 2 -20 9 -24 46 -27 23
-2 42 0 41 5 0 4 -22 71 -47 148 l-47 140 -42 3 c-32 2 -44 -1 -51 -15z"/>
<path d="M559 443 c-22 -3 -28 -11 -32 -40 -8 -45 -3 -53 31 -52 24 2 24 2 5
6 -28 5 -30 33 -3 33 11 0 20 5 20 10 0 6 -9 10 -21 10 -11 0 -17 5 -14 10 3
6 15 10 26 10 10 0 19 5 19 10 0 6 -1 9 -2 9 -2 -1 -15 -4 -29 -6z"/>
<path d="M810 431 c0 -10 -3 -33 -6 -50 -5 -23 -3 -31 7 -31 10 0 14 15 15 50
1 28 -3 50 -7 50 -5 0 -9 -8 -9 -19z"/>
<path d="M850 423 c0 -16 -3 -38 -6 -50 -4 -16 -2 -23 7 -23 10 0 14 15 15 50
1 28 -3 50 -7 50 -5 0 -9 -12 -9 -27z"/>
<path d="M1210 423 c0 -16 -3 -38 -6 -50 -5 -20 -2 -23 19 -23 16 0 31 8 37
21 14 25 6 49 -15 49 -8 0 -15 7 -15 15 0 8 -4 15 -10 15 -5 0 -10 -12 -10
-27z m38 -35 c-5 -32 -28 -35 -28 -4 0 17 5 26 16 26 10 0 14 -7 12 -22z"/>
<path d="M1485 440 c-3 -5 -1 -10 4 -10 6 0 11 5 11 10 0 6 -2 10 -4 10 -3 0
-8 -4 -11 -10z"/>
<path d="M1395 423 c13 -62 17 -74 26 -71 13 4 51 88 40 88 -5 0 -16 -17 -24
-37 l-15 -38 -7 38 c-4 20 -11 37 -15 37 -5 0 -7 -8 -5 -17z"/>
<path d="M1576 431 c-4 -6 -18 -11 -30 -11 -16 0 -26 -7 -30 -22 -9 -34 -7
-50 4 -43 6 3 10 17 10 31 0 17 5 24 20 24 16 0 20 -7 20 -30 0 -22 5 -30 18
-29 10 0 12 3 5 6 -15 6 -17 35 -3 49 5 5 5 15 1 23 -6 9 -11 10 -15 2z"/>
<path d="M609 403 c7 -13 5 -23 -6 -35 -9 -10 -11 -18 -5 -18 6 0 14 5 18 11
4 8 9 7 15 -2 4 -7 11 -10 15 -6 4 4 2 13 -4 19 -9 9 -8 16 5 30 18 20 4 25
-15 6 -9 -9 -12 -9 -12 0 0 7 -5 12 -10 12 -8 0 -8 -6 -1 -17z"/>
<path d="M671 398 c-12 -33 -3 -48 28 -47 23 2 24 2 4 6 -15 3 -23 12 -23 24
0 11 10 24 23 29 l22 9 -23 0 c-15 1 -26 -7 -31 -21z"/>
<path d="M734 396 c-8 -32 2 -46 29 -45 21 0 21 1 -3 11 l-25 11 25 6 c35 10
40 41 6 41 -19 0 -27 -6 -32 -24z m41 4 c-3 -5 -10 -10 -16 -10 -5 0 -9 5 -9
10 0 6 7 10 16 10 8 0 12 -4 9 -10z"/>
<path d="M890 405 c-18 -22 -8 -50 20 -52 l25 -3 -25 11 -25 12 25 6 c31 8 40
41 12 41 -11 0 -25 -7 -32 -15z m35 -5 c-3 -5 -10 -10 -16 -10 -5 0 -9 5 -9
10 0 6 7 10 16 10 8 0 12 -4 9 -10z"/>
<path d="M956 398 c-9 -34 -7 -50 4 -43 6 3 10 17 10 31 0 15 6 24 16 24 12 0
15 -7 12 -30 -3 -16 -1 -30 4 -30 4 0 8 16 8 35 0 30 -3 35 -24 35 -16 0 -26
-7 -30 -22z"/>
<path d="M1037 413 c-4 -3 -7 -19 -7 -35 0 -24 4 -28 28 -27 26 0 26 1 5 9
-31 13 -27 40 7 53 11 4 9 6 -6 6 -11 1 -24 -2 -27 -6z"/>
<path d="M1100 401 c-14 -27 -2 -51 24 -50 16 1 17 2 4 6 -24 6 -23 23 2 23
13 0 20 7 20 20 0 26 -36 27 -50 1z m40 -1 c0 -5 -7 -10 -16 -10 -8 0 -12 5
-9 10 3 6 10 10 16 10 5 0 9 -4 9 -10z"/>
<path d="M1286 393 c3 -16 7 -34 9 -40 2 -7 -4 -17 -13 -22 -16 -10 -16 -10 1
-11 12 0 25 15 38 46 23 51 19 72 -5 27 l-15 -28 -1 28 c0 15 -5 27 -10 27 -6
0 -8 -12 -4 -27z"/>
<path d="M1480 401 c0 -11 -3 -26 -6 -35 -3 -9 -2 -16 4 -16 5 0 12 16 14 35
2 19 0 35 -4 35 -4 0 -8 -9 -8 -19z"/>
<path d="M1619 400 c-8 -37 -1 -50 27 -50 17 0 24 6 24 19 0 11 3 26 6 35 3 9
1 16 -5 16 -6 0 -11 -13 -11 -30 0 -42 -28 -40 -32 3 -3 30 -4 30 -9 7z"/>
<path d="M1697 414 c-4 -4 -7 -20 -7 -36 0 -24 4 -28 28 -27 l27 0 -25 11 -25
11 25 6 c14 4 25 13 25 21 0 16 -36 26 -48 14z m33 -14 c0 -5 -4 -10 -10 -10
-5 0 -10 5 -10 10 0 6 5 10 10 10 6 0 10 -4 10 -10z"/>
</g>
</svg>
