<svg xmlns="http://www.w3.org/2000/svg" width="214" height="236" viewBox="0 0 214 236" version="1.1"><path d="M 0 30.016 L 0 60.032 2.750 57.076 C 4.263 55.450, 26.650 42.341, 52.500 27.944 C 78.350 13.547, 100.175 1.384, 101 0.915 C 101.844 0.434, 80.087 0.048, 51.250 0.030 L 0 0 0 30.016 M 112.083 0.388 C 112.313 0.602, 134.100 12.780, 160.500 27.451 C 186.900 42.122, 209.737 55.455, 211.250 57.079 L 214 60.032 214 30.016 L 214 0 162.833 0 C 134.692 0, 111.854 0.175, 112.083 0.388 M 90.500 41.414 C 74.734 45.040, 63.289 51.492, 51.345 63.489 C 43.330 71.539, 41.564 73.982, 37.174 83.093 C 31.094 95.708, 29 104.652, 29 118 C 29 131.348, 31.094 140.292, 37.174 152.907 C 41.595 162.082, 43.274 164.392, 51.345 172.408 C 67.922 188.872, 84.681 195.965, 107 195.965 C 127.512 195.965, 145.014 189.187, 159.839 175.500 C 167.171 168.731, 175.480 158.056, 174.288 156.936 C 172.971 155.699, 142.317 139, 141.377 139.007 C 140.895 139.011, 139.424 140.594, 138.108 142.526 C 136.792 144.458, 133.516 147.653, 130.827 149.627 C 106.593 167.416, 73.341 153.995, 67.798 124.187 C 63.037 98.588, 87.358 74.326, 113.215 78.881 C 123.582 80.707, 133.948 87.052, 139.180 94.773 L 140.720 97.045 156.610 87.951 C 165.350 82.949, 172.898 78.469, 173.384 77.995 C 174.656 76.753, 168.207 68.381, 160.054 60.690 C 151.920 53.017, 141.738 47.049, 130.500 43.370 C 120.612 40.133, 100.376 39.143, 90.500 41.414 M 0.005 205.750 L 0 236 51.167 236 C 79.308 236, 102.146 235.820, 101.917 235.599 C 101.688 235.378, 79.675 222.992, 53 208.073 C 24.930 192.374, 3.554 179.800, 2.255 178.224 L 0.010 175.500 0.005 205.750 M 211.878 178.043 C 210.862 179.583, 191.907 190.767, 161.110 208 L 111.964 235.500 162.639 235.759 C 190.511 235.902, 213.476 235.858, 213.673 235.661 C 213.869 235.464, 213.911 221.867, 213.765 205.444 C 213.517 177.511, 213.395 175.744, 211.878 178.043" stroke="none" fill="#ffffff" fill-rule="evenodd"/><path d="M 109.813 0.683 C 110.534 0.972, 111.397 0.936, 111.729 0.604 C 112.061 0.272, 111.471 0.036, 110.417 0.079 C 109.252 0.127, 109.015 0.364, 109.813 0.683 M 113 1.430 C 113 1.705, 113.900 2.411, 115 3 C 116.100 3.589, 117 3.845, 117 3.570 C 117 3.295, 116.100 2.589, 115 2 C 113.900 1.411, 113 1.155, 113 1.430 M 122 6.430 C 122 6.705, 122.900 7.411, 124 8 C 125.100 8.589, 126 8.845, 126 8.570 C 126 8.295, 125.100 7.589, 124 7 C 122.900 6.411, 122 6.155, 122 6.430 M 87.441 8.555 C 85.577 10.049, 85.589 10.067, 87.750 9.020 C 88.987 8.420, 90 7.720, 90 7.465 C 90 6.700, 89.481 6.921, 87.441 8.555 M 131 11.430 C 131 11.705, 131.900 12.411, 133 13 C 134.100 13.589, 135 13.845, 135 13.570 C 135 13.295, 134.100 12.589, 133 12 C 131.900 11.411, 131 11.155, 131 11.430 M 78.441 13.555 C 76.577 15.049, 76.589 15.067, 78.750 14.020 C 79.987 13.420, 81 12.720, 81 12.465 C 81 11.700, 80.481 11.921, 78.441 13.555 M 140 16.430 C 140 16.705, 140.900 17.411, 142 18 C 143.100 18.589, 144 18.845, 144 18.570 C 144 18.295, 143.100 17.589, 142 17 C 140.900 16.411, 140 16.155, 140 16.430 M 69.441 18.555 C 67.577 20.049, 67.589 20.067, 69.750 19.020 C 70.987 18.420, 72 17.720, 72 17.465 C 72 16.700, 71.481 16.921, 69.441 18.555 M 149 21.430 C 149 21.705, 149.900 22.411, 151 23 C 152.100 23.589, 153 23.845, 153 23.570 C 153 23.295, 152.100 22.589, 151 22 C 149.900 21.411, 149 21.155, 149 21.430 M 53.441 27.555 C 51.577 29.049, 51.589 29.067, 53.750 28.020 C 54.987 27.420, 56 26.720, 56 26.465 C 56 25.700, 55.481 25.921, 53.441 27.555 M 165 30.430 C 165 30.705, 165.900 31.411, 167 32 C 168.100 32.589, 169 32.845, 169 32.570 C 169 32.295, 168.100 31.589, 167 31 C 165.900 30.411, 165 30.155, 165 30.430 M 44.441 32.555 C 42.577 34.049, 42.589 34.067, 44.750 33.020 C 45.987 32.420, 47 31.720, 47 31.465 C 47 30.700, 46.481 30.921, 44.441 32.555 M 174 35.430 C 174 35.705, 174.900 36.411, 176 37 C 177.100 37.589, 178 37.845, 178 37.570 C 178 37.295, 177.100 36.589, 176 36 C 174.900 35.411, 174 35.155, 174 35.430 M 35.441 37.555 C 33.577 39.049, 33.589 39.067, 35.750 38.020 C 36.987 37.420, 38 36.720, 38 36.465 C 38 35.700, 37.481 35.921, 35.441 37.555 M 102.750 39.732 C 105.087 39.943, 108.912 39.943, 111.250 39.732 C 113.587 39.522, 111.675 39.349, 107 39.349 C 102.325 39.349, 100.412 39.522, 102.750 39.732 M 92.750 40.662 C 93.438 40.940, 94.563 40.940, 95.250 40.662 C 95.938 40.385, 95.375 40.158, 94 40.158 C 92.625 40.158, 92.063 40.385, 92.750 40.662 M 118.750 40.662 C 119.438 40.940, 120.563 40.940, 121.250 40.662 C 121.938 40.385, 121.375 40.158, 120 40.158 C 118.625 40.158, 118.063 40.385, 118.750 40.662 M 183 40.430 C 183 40.705, 183.900 41.411, 185 42 C 186.100 42.589, 187 42.845, 187 42.570 C 187 42.295, 186.100 41.589, 185 41 C 183.900 40.411, 183 40.155, 183 40.430 M 19.441 46.555 C 17.577 48.049, 17.589 48.067, 19.750 47.020 C 20.988 46.420, 22 45.720, 22 45.465 C 22 44.700, 21.481 44.921, 19.441 46.555 M 192 45.430 C 192 45.705, 192.900 46.411, 194 47 C 195.100 47.589, 196 47.845, 196 47.570 C 196 47.295, 195.100 46.589, 194 46 C 192.900 45.411, 192 45.155, 192 45.430 M 10.441 51.555 C 8.577 53.049, 8.589 53.067, 10.750 52.020 C 11.988 51.420, 13 50.720, 13 50.465 C 13 49.700, 12.481 49.921, 10.441 51.555 M 201 50.430 C 201 50.705, 201.900 51.411, 203 52 C 204.100 52.589, 205 52.845, 205 52.570 C 205 52.295, 204.100 51.589, 203 51 C 201.900 50.411, 201 50.155, 201 50.430 M 2.924 56.750 L 0.500 59.500 3.250 57.076 C 4.763 55.742, 6 54.505, 6 54.326 C 6 53.541, 5.190 54.180, 2.924 56.750 M 210 56.500 C 211.292 57.875, 212.574 59, 212.849 59 C 213.124 59, 212.292 57.875, 211 56.500 C 209.708 55.125, 208.426 54, 208.151 54 C 207.876 54, 208.708 55.125, 210 56.500 M 50.966 62.750 L 45.500 68.500 51.250 63.034 C 56.592 57.956, 57.458 57, 56.716 57 C 56.560 57, 53.972 59.587, 50.966 62.750 M 162 62.500 C 164.987 65.525, 167.657 68, 167.932 68 C 168.207 68, 165.987 65.525, 163 62.500 C 160.013 59.475, 157.343 57, 157.068 57 C 156.793 57, 159.013 59.475, 162 62.500 M 42.872 71.750 C 41.629 73.336, 41.664 73.371, 43.250 72.128 C 44.916 70.821, 45.445 70, 44.622 70 C 44.415 70, 43.627 70.787, 42.872 71.750 M 169 70.378 C 169 70.585, 169.787 71.373, 170.750 72.128 C 172.336 73.371, 172.371 73.336, 171.128 71.750 C 169.821 70.084, 169 69.555, 169 70.378 M 104.750 78.706 C 105.987 78.944, 108.013 78.944, 109.250 78.706 C 110.487 78.467, 109.475 78.272, 107 78.272 C 104.525 78.272, 103.513 78.467, 104.750 78.706 M 36.452 82.093 C 35.572 83.794, 35.030 85.363, 35.247 85.580 C 35.464 85.797, 36.390 84.406, 37.305 82.487 C 39.361 78.175, 38.649 77.845, 36.452 82.093 M 97.813 79.683 C 98.534 79.972, 99.397 79.936, 99.729 79.604 C 100.061 79.272, 99.471 79.036, 98.417 79.079 C 97.252 79.127, 97.015 79.364, 97.813 79.683 M 114.813 79.683 C 115.534 79.972, 116.397 79.936, 116.729 79.604 C 117.061 79.272, 116.471 79.036, 115.417 79.079 C 114.252 79.127, 114.015 79.364, 114.813 79.683 M 88.750 82.572 C 84.873 84.675, 85.312 85.401, 89.250 83.399 C 93.020 81.481, 93.687 80.985, 92.417 81.040 C 91.912 81.062, 90.263 81.751, 88.750 82.572 M 121.083 81.373 C 122.112 82.294, 128 84.999, 128 84.551 C 128 83.975, 122.456 81, 121.383 81 C 120.989 81, 120.854 81.168, 121.083 81.373 M 78.405 90.250 L 76.500 92.500 78.750 90.595 C 79.987 89.547, 81 88.535, 81 88.345 C 81 87.545, 80.195 88.136, 78.405 90.250 M 134.500 90 C 135.495 91.100, 136.535 92, 136.810 92 C 137.085 92, 136.495 91.100, 135.500 90 C 134.505 88.900, 133.465 88, 133.190 88 C 132.915 88, 133.505 88.900, 134.500 90 M 31.079 95.583 C 31.127 96.748, 31.364 96.985, 31.683 96.188 C 31.972 95.466, 31.936 94.603, 31.604 94.271 C 31.272 93.939, 31.036 94.529, 31.079 95.583 M 30.079 99.583 C 30.127 100.748, 30.364 100.985, 30.683 100.188 C 30.972 99.466, 30.936 98.603, 30.604 98.271 C 30.272 97.939, 30.036 98.529, 30.079 99.583 M 29.158 104 C 29.158 105.375, 29.385 105.938, 29.662 105.250 C 29.940 104.563, 29.940 103.438, 29.662 102.750 C 29.385 102.063, 29.158 102.625, 29.158 104 M 28.370 118 C 28.370 123.775, 28.535 126.138, 28.737 123.250 C 28.939 120.362, 28.939 115.638, 28.737 112.750 C 28.535 109.862, 28.370 112.225, 28.370 118 M 68.079 109.583 C 68.127 110.748, 68.364 110.985, 68.683 110.188 C 68.972 109.466, 68.936 108.603, 68.604 108.271 C 68.272 107.939, 68.036 108.529, 68.079 109.583 M 67.300 118 C 67.300 121.025, 67.487 122.263, 67.716 120.750 C 67.945 119.237, 67.945 116.763, 67.716 115.250 C 67.487 113.737, 67.300 114.975, 67.300 118 M 68.079 126.583 C 68.127 127.748, 68.364 127.985, 68.683 127.188 C 68.972 126.466, 68.936 125.603, 68.604 125.271 C 68.272 124.939, 68.036 125.529, 68.079 126.583 M 29.158 132 C 29.158 133.375, 29.385 133.938, 29.662 133.250 C 29.940 132.563, 29.940 131.438, 29.662 130.750 C 29.385 130.063, 29.158 130.625, 29.158 132 M 30.079 136.583 C 30.127 137.748, 30.364 137.985, 30.683 137.188 C 30.972 136.466, 30.936 135.603, 30.604 135.271 C 30.272 134.939, 30.036 135.529, 30.079 136.583 M 31.079 140.583 C 31.127 141.748, 31.364 141.985, 31.683 141.188 C 31.972 140.466, 31.936 139.603, 31.604 139.271 C 31.272 138.939, 31.036 139.529, 31.079 140.583 M 78.500 146 C 79.495 147.100, 80.535 148, 80.810 148 C 81.085 148, 80.495 147.100, 79.500 146 C 78.505 144.900, 77.465 144, 77.190 144 C 76.915 144, 77.505 144.900, 78.500 146 M 134.405 146.250 L 132.500 148.500 134.750 146.595 C 136.864 144.805, 137.455 144, 136.655 144 C 136.465 144, 135.453 145.012, 134.405 146.250 M 35 150.383 C 35 151.456, 37.975 157, 38.551 157 C 38.826 157, 38.308 155.537, 37.399 153.750 C 35.542 150.100, 35 149.339, 35 150.383 M 104.750 157.706 C 105.987 157.944, 108.013 157.944, 109.250 157.706 C 110.487 157.467, 109.475 157.272, 107 157.272 C 104.525 157.272, 103.513 157.467, 104.750 157.706 M 50.958 173.250 C 55.102 177.665, 56 178.459, 56 177.708 C 56 177.548, 53.862 175.410, 51.250 172.958 L 46.500 168.500 50.958 173.250 M 162 173.500 C 159.571 175.975, 157.809 178, 158.084 178 C 158.359 178, 160.571 175.975, 163 173.500 C 165.429 171.025, 167.191 169, 166.916 169 C 166.641 169, 164.429 171.025, 162 173.500 M 0.079 174.583 C 0.127 175.748, 0.364 175.985, 0.683 175.188 C 0.972 174.466, 0.936 173.603, 0.604 173.271 C 0.272 172.939, 0.036 173.529, 0.079 174.583 M 2 178.378 C 2 178.585, 2.788 179.373, 3.750 180.128 C 5.336 181.371, 5.371 181.336, 4.128 179.750 C 2.821 178.084, 2 177.555, 2 178.378 M 209.872 179.750 C 208.629 181.336, 208.664 181.371, 210.250 180.128 C 211.916 178.821, 212.445 178, 211.622 178 C 211.415 178, 210.627 178.787, 209.872 179.750 M 93.813 195.683 C 94.534 195.972, 95.397 195.936, 95.729 195.604 C 96.061 195.272, 95.471 195.036, 94.417 195.079 C 93.252 195.127, 93.015 195.364, 93.813 195.683 M 118.813 195.683 C 119.534 195.972, 120.397 195.936, 120.729 195.604 C 121.061 195.272, 120.471 195.036, 119.417 195.079 C 118.252 195.127, 118.015 195.364, 118.813 195.683 M 104.250 196.716 C 105.763 196.945, 108.237 196.945, 109.750 196.716 C 111.263 196.487, 110.025 196.300, 107 196.300 C 103.975 196.300, 102.737 196.487, 104.250 196.716" stroke="none" fill="#fbfbfb" fill-rule="evenodd"/><path d="M 103 0.677 C 97.118 3.064, 5.877 54.836, 3.500 57.136 L 0.500 60.039 0.500 118 L 0.500 175.962 3.500 178.837 C 5.150 180.419, 28.100 193.804, 54.500 208.582 C 97.494 232.649, 102.969 235.451, 107 235.451 C 111.031 235.451, 116.498 232.652, 159.500 208.568 C 185.900 193.782, 208.552 180.743, 209.837 179.592 C 214.990 174.980, 215 174.851, 215 115.819 C 215 79.449, 214.662 61.091, 214 61.500 C 213.450 61.840, 213 61.501, 213 60.746 C 213 57.784, 205.798 53.315, 159.618 27.622 C 113.653 2.048, 107.196 -1.025, 103 0.677 M 94.831 39.954 C 66.918 45.076, 44.321 62.972, 33.920 88.193 C 14.015 136.464, 45.970 189.672, 98.750 196.141 C 119.431 198.676, 143.436 190.959, 159.687 176.553 C 164.894 171.938, 174.980 159.372, 174.981 157.500 C 174.981 156.950, 167.460 152.372, 158.267 147.327 L 141.552 138.154 136.227 144.039 C 132.576 148.073, 128.802 150.957, 124.222 153.211 C 117.950 156.299, 116.898 156.500, 107 156.500 C 97.111 156.500, 96.046 156.297, 89.807 153.226 C 69.033 142.999, 61.669 116.419, 74.168 96.778 C 78.189 90.458, 83.066 86.340, 90.953 82.603 C 96.854 79.806, 98.442 79.500, 107.052 79.500 C 116.087 79.500, 117.017 79.704, 124.249 83.279 C 129.627 85.937, 133.227 88.579, 136.384 92.189 L 140.873 97.320 152.091 91.038 C 158.261 87.583, 165.962 83.201, 169.204 81.301 L 175.099 77.846 173.187 74.827 C 163.963 60.258, 145.690 47.027, 127.821 41.978 C 119.605 39.656, 102.256 38.592, 94.831 39.954 M 0.467 117.500 C 0.467 148.300, 0.594 161.044, 0.749 145.821 C 0.904 130.598, 0.905 105.398, 0.749 89.821 C 0.594 74.244, 0.467 86.700, 0.467 117.500" stroke="none" fill="#2f71ad" fill-rule="evenodd"/></svg>