<?xml version="1.0" standalone="no"?>
<!DOCTYPE svg PUBLIC "-//W3C//DTD SVG 20010904//EN"
 "http://www.w3.org/TR/2001/REC-SVG-20010904/DTD/svg10.dtd">
<svg version="1.0" xmlns="http://www.w3.org/2000/svg"
 width="214.000000pt" height="236.000000pt" viewBox="0 0 214.000000 236.000000"
 preserveAspectRatio="xMidYMid meet">
<metadata>
Created by potrace 1.16, written by Peter Selinger 2001-2019
</metadata>
<g transform="translate(0.000000,236.000000) scale(0.100000,-0.100000)"
fill="#000000" stroke="none">
<path d="M1922 1681 c-218 -127 -517 -297 -552 -315 -14 -7 -166 -93 -337
-191 l-313 -178 33 -46 c119 -165 355 -210 529 -99 46 29 96 78 116 114 9 16
28 7 181 -76 94 -51 171 -99 171 -105 0 -7 -16 -34 -36 -61 -114 -152 -262
-255 -441 -306 -111 -32 -295 -32 -406 0 -189 54 -356 175 -458 332 -18 28
-33 50 -34 50 -6 0 -341 -193 -350 -201 -6 -6 -2 -16 10 -29 11 -10 238 -141
505 -291 435 -245 490 -273 530 -273 40 0 95 28 535 275 311 176 497 286 510
303 19 27 20 41 23 569 2 298 0 556 -3 573 -13 71 -14 70 -213 -45z"/>
</g>
</svg>
