<?xml version="1.0" encoding="UTF-8"?>
<svg version="1.1" xmlns="http://www.w3.org/2000/svg" width="212" height="238">
<path d="M0 0 C69.96 0 139.92 0 212 0 C212 78.54 212 157.08 212 238 C142.04 238 72.08 238 0 238 C0 159.46 0 80.92 0 0 Z " fill="#659AD2" transform="translate(0,0)"/>
<path d="M0 0 C2.00387271 4.17457021 2.24719078 7.56195773 2.24050903 12.16902161 C2.24221788 12.87974829 2.24392673 13.59047497 2.24568737 14.32273883 C2.24897484 16.69809141 2.23799097 19.07315988 2.22705078 21.44848633 C2.22648651 23.15363559 2.22680355 24.85878534 2.22793579 26.56393433 C2.22850967 31.18956638 2.21674965 35.81509473 2.20278788 40.44070268 C2.19028639 45.27603012 2.18911048 50.11135994 2.18673706 54.94670105 C2.18052059 64.10158501 2.16410748 73.25642122 2.14403808 82.41128415 C2.12168431 92.83441154 2.11068696 103.2575412 2.10064721 113.68068659 C2.07974142 135.12048439 2.04456216 156.56023918 2 178 C-12.22128704 178.07016984 -26.44254711 178.12282753 -40.6639719 178.15543652 C-47.26766022 178.17108772 -53.87123217 178.19231644 -60.47485352 178.22631836 C-66.84852682 178.25893065 -73.22208824 178.27685712 -79.59583855 178.28463173 C-82.02668964 178.29017183 -84.45753466 178.30099025 -86.88833809 178.31719017 C-90.29491502 178.33898875 -93.70103048 178.34196583 -97.10766602 178.34057617 C-98.11108032 178.351362 -99.11449463 178.36214783 -100.14831543 178.3732605 C-105.91014887 178.34785173 -109.88301197 177.68279665 -115 175 C-115.90959473 174.5263501 -116.81918945 174.0527002 -117.75634766 173.56469727 C-118.63339355 173.07026123 -119.51043945 172.5758252 -120.4140625 172.06640625 C-121.41123291 171.50630859 -122.40840332 170.94621094 -123.43579102 170.36914062 C-124.48822998 169.77294922 -125.54066895 169.17675781 -126.625 168.5625 C-127.73093506 167.93923828 -128.83687012 167.31597656 -129.97631836 166.67382812 C-133.32012721 164.78707253 -136.66062244 162.89458563 -140 161 C-140.93312012 160.47132324 -141.86624023 159.94264648 -142.82763672 159.39794922 C-155.03587929 152.47444487 -167.17626331 145.43553228 -179.28515625 138.33984375 C-182.88666681 136.22986177 -186.49712027 134.13755295 -190.12109375 132.06640625 C-191.28753418 131.39472412 -191.28753418 131.39472412 -192.47753906 130.70947266 C-193.89387087 129.89428389 -195.31352322 129.08482136 -196.73730469 128.28271484 C-200.731061 125.97167488 -203.93491238 123.52221349 -207 120 C-207 119.34 -207 118.68 -207 118 C-206.32122803 117.62302979 -205.64245605 117.24605957 -204.94311523 116.85766602 C-201.77313167 115.09519272 -198.60500026 113.3294325 -195.4375 111.5625 C-194.29974121 110.92812012 -193.16198242 110.29374023 -191.98974609 109.64013672 C-185.01213427 105.73374407 -178.09057579 101.76317907 -171.32983398 97.49047852 C-168.62208515 95.8108249 -167.26074813 95 -164 95 C-162.78125 96.58203125 -162.78125 96.58203125 -161.5 98.8125 C-152.69968363 112.48518665 -138.10485949 123.46324654 -122 127 C-102.6493184 131.16369155 -82.92051713 128.03677901 -66 118 C-56.96110816 111.91199837 -49.29276928 104.56769832 -44 95 C-47.33326115 92.22146586 -50.66407071 89.91844576 -54.44921875 87.80078125 C-55.46177734 87.23166016 -56.47433594 86.66253906 -57.51757812 86.07617188 C-58.56365234 85.49416016 -59.60972656 84.91214844 -60.6875 84.3125 C-62.27401367 83.42208008 -62.27401367 83.42208008 -63.89257812 82.51367188 C-68.90367994 79.67703222 -68.90367994 79.67703222 -74 77 C-74.268125 77.58910156 -74.53625 78.17820312 -74.8125 78.78515625 C-79.19853795 86.96569413 -87.49745474 91.16581825 -96 94 C-108.27350255 95.05506714 -117.31251914 94.01628937 -127.3359375 86.171875 C-133.81828868 80.2437769 -138.61468676 72.19189418 -139.16796875 63.30078125 C-139.24806071 51.04671075 -137.24189676 42.61110957 -128.9375 33.375 C-121.04486707 26.02318989 -112.76617843 23.15910822 -102.15454102 23.43212891 C-90.78892049 24.09564648 -83.81642691 28.83784651 -76 37 C-75.34 37.99 -74.68 38.98 -74 40 C-69.91699872 38.74903473 -66.39118314 37.24527562 -62.7109375 35.0859375 C-61.70047363 34.49748047 -60.69000977 33.90902344 -59.64892578 33.30273438 C-58.56853027 32.66658203 -57.48813477 32.03042969 -56.375 31.375 C-54.64501814 30.36615209 -52.91502389 29.35732492 -51.18441772 28.34954834 C-49.97931334 27.64759077 -48.77458642 26.94498483 -47.57022095 26.24176025 C-40.782201 22.28046037 -33.95400637 18.39006364 -27.125 14.5 C-24.87729287 13.21929619 -22.62988551 11.9380661 -20.3828125 10.65625 C-19.32868164 10.05554688 -18.27455078 9.45484375 -17.18847656 8.8359375 C-12.88523848 6.35811588 -8.61926966 3.81829969 -4.35888672 1.26757812 C-2 0 -2 0 0 0 Z " fill="#02599C" transform="translate(210,60)"/>
<path d="M0 0 C7.1248317 6.01550798 13.20849544 11.91535714 17.75 20.125 C13.05333334 25.22709405 7.18692323 28.09173274 1.1875 31.4375 C0.02648026 32.1018424 -1.13432917 32.76655248 -2.29492188 33.43164062 C-3.39513672 34.04845703 -4.49535156 34.66527344 -5.62890625 35.30078125 C-6.6351001 35.86708252 -7.64129395 36.43338379 -8.67797852 37.0168457 C-11.25 38.125 -11.25 38.125 -14.25 37.125 C-15.86328125 35.41796875 -15.86328125 35.41796875 -17.5625 33.3125 C-23.46404077 26.39856102 -30.08458058 22.65144537 -39.12109375 21.73046875 C-50.00544213 21.15240758 -57.87382905 23.11440109 -66.62109375 29.98828125 C-73.83075525 36.58942086 -76.74665322 44.16032411 -77.44140625 53.7734375 C-77.84363763 63.86814749 -75.7236758 71.57744717 -69.25 79.4375 C-61.81460562 87.00566928 -54.19930539 90.65609377 -43.625 90.75 C-31.2935145 90.43686675 -23.78500518 86.03751502 -15.25 77.125 C-14.26 75.64 -14.26 75.64 -13.25 74.125 C-8.81631734 75.44874619 -5.14427541 77.19961599 -1.1953125 79.6015625 C-0.08671875 80.271875 1.021875 80.9421875 2.1640625 81.6328125 C3.31778733 82.33841252 4.47143219 83.04414331 5.625 83.75 C6.80175274 84.46408674 7.9788332 85.17763372 9.15625 85.890625 C12.02409848 87.63013965 14.88849923 89.37507001 17.75 91.125 C10.38342274 106.3377596 -3.92532641 117.23491528 -19.5625 122.9375 C-27.61207328 125.72285067 -34.53455835 126.3073632 -43 126.3125 C-44.04671875 126.32474609 -45.0934375 126.33699219 -46.171875 126.34960938 C-64.31017068 126.38361868 -80.4551406 119.14152399 -93.4375 106.5 C-107.50145737 92.21801421 -114.69342091 73.69169312 -114.61645508 53.79052734 C-114.09879726 35.11801656 -106.36070932 19.23570932 -93.25 6.125 C-92.71117188 5.50367187 -92.17234375 4.88234375 -91.6171875 4.2421875 C-69.08913923 -21.00281131 -25.19904184 -19.5907185 0 0 Z " fill="#FDFDFE" transform="translate(149.25,62.875)"/>
<path d="M0 0 C1.21875 1.58203125 1.21875 1.58203125 2.5 3.8125 C11.30031637 17.48518665 25.89514051 28.46324654 42 32 C61.3506816 36.16369155 81.07948287 33.03677901 98 23 C107.03889184 16.91199837 114.70723072 9.56769832 120 0 C124.13667277 1.26060278 127.66782227 2.79875473 131.37890625 5.01171875 C132.37728516 5.60194824 133.37566406 6.19217773 134.40429688 6.80029297 C135.44650391 7.42307129 136.48871094 8.04584961 137.5625 8.6875 C145.95154678 13.64616164 154.35178133 18.50698015 163 23 C160.00761675 31.07943478 150.34216795 34.7876969 143.3125 38.625 C141.04628246 39.87783501 138.78066193 41.13175053 136.515625 42.38671875 C134.8459668 43.30976807 134.8459668 43.30976807 133.14257812 44.25146484 C128.92156407 46.60004336 124.73656002 49.00669143 120.5625 51.4375 C119.45140869 52.08344116 119.45140869 52.08344116 118.31787109 52.74243164 C116.74978434 53.65441445 115.18192075 54.56678105 113.61425781 55.47949219 C100.65884165 63.01463711 87.69485402 70.53961414 74.625 77.875 C73.90046631 78.28564697 73.17593262 78.69629395 72.42944336 79.11938477 C66.69464686 82.31433681 62.59766619 83.4472994 56 83 C49.43181759 80.56575814 43.45612521 77.00736922 37.375 73.5625 C36.26906494 72.93923828 35.16312988 72.31597656 34.02368164 71.67382812 C30.67987279 69.78707253 27.33937756 67.89458563 24 66 C23.06687988 65.47132324 22.13375977 64.94264648 21.17236328 64.39794922 C8.96412071 57.47444487 -3.17626331 50.43553228 -15.28515625 43.33984375 C-18.88666681 41.22986177 -22.49712027 39.13755295 -26.12109375 37.06640625 C-26.8987207 36.61861816 -27.67634766 36.17083008 -28.47753906 35.70947266 C-29.89387087 34.89428389 -31.31352322 34.08482136 -32.73730469 33.28271484 C-36.731061 30.97167488 -39.93491238 28.52221349 -43 25 C-43 24.34 -43 23.68 -43 23 C-42.32122803 22.62302979 -41.64245605 22.24605957 -40.94311523 21.85766602 C-37.77313167 20.09519272 -34.60500026 18.3294325 -31.4375 16.5625 C-29.73086182 15.61093018 -29.73086182 15.61093018 -27.98974609 14.64013672 C-21.01213427 10.73374407 -14.09057579 6.76317907 -7.32983398 2.49047852 C-4.62208515 0.8108249 -3.26074813 0 0 0 Z " fill="#024482" transform="translate(46,155)"/>
<path d="M0 0 C0.33 0 0.66 0 1 0 C1 21.45 1 42.9 1 65 C-32.99 65 -66.98 65 -102 65 C-100.68 64.34 -99.36 63.68 -98 63 C-85.63262713 56.46139362 -73.46364025 49.5898468 -61.40307617 42.50390625 C-54.09171764 38.21022272 -46.74628258 33.98140105 -39.37875366 29.78521729 C-37.5788096 28.75929605 -35.78002459 27.73137529 -33.98168945 26.70263672 C-33.40256302 26.37135773 -32.82343658 26.04007874 -32.22676086 25.69876099 C-31.37201424 25.20978836 -31.37201424 25.20978836 -30.5 24.7109375 C-26.54957165 22.45174317 -22.59216614 20.20620648 -18.625 17.9765625 C-17.10389176 17.1098573 -15.58303422 16.24271185 -14.0625 15.375 C-13.07068726 14.82730957 -13.07068726 14.82730957 -12.05883789 14.26855469 C-6.12154753 10.84875122 -2.13903723 6.61156961 0 0 Z " fill="#FDFDFE" transform="translate(211,173)"/>
<path d="M0 0 C33.99 0 67.98 0 103 0 C103 21.45 103 42.9 103 65 C101.6953199 63.04297985 100.42257633 61.06417543 99.1875 59.0625 C95.88864949 54.44410929 91.81612451 51.74362745 86.88671875 49.0390625 C85.89889404 48.49266113 84.91106934 47.94625977 83.89331055 47.38330078 C82.83539307 46.80306152 81.77747559 46.22282227 80.6875 45.625 C72.13093502 40.8843935 63.62325085 36.07751506 55.1875 31.125 C45.04123561 25.17137181 34.84147669 19.31701259 24.61401367 13.50439453 C23.50646729 12.87388184 22.3989209 12.24336914 21.2578125 11.59375 C20.19723633 10.99046875 19.13666016 10.3871875 18.04394531 9.765625 C14.38170584 7.64136162 10.7876549 5.41685083 7.21435547 3.14648438 C4.80844371 1.90082157 2.66754599 1.40614782 0 1 C0 0.67 0 0.34 0 0 Z " fill="#FDFEFE" transform="translate(109,0)"/>
<path d="M0 0 C2 2 2 2 3.25 4.8125 C7.39888371 12.36939533 15.6326133 15.76749043 22.9375 19.75 C25.20800172 21.00345204 27.47753908 22.25865253 29.74609375 23.515625 C30.83390137 24.11826172 31.92170898 24.72089844 33.04248047 25.34179688 C37.1506406 27.64513381 41.16786128 30.07444771 45.1862793 32.53076172 C52.18247955 36.77082449 59.35159252 40.70612641 66.49951172 44.68286133 C74.02240558 48.8734399 81.49292665 53.14329247 88.89941406 57.53662109 C93.16698212 60.04242954 97.40795871 62.14992562 102 64 C102 64.33 102 64.66 102 65 C68.34 65 34.68 65 0 65 C0 43.55 0 22.1 0 0 Z " fill="#FDFDFE" transform="translate(0,173)"/>
<path d="M0 0 C33.33 0 66.66 0 101 0 C98.08470413 2.18647191 95.55909764 3.87587088 92.39453125 5.56640625 C91.5029834 6.04625977 90.61143555 6.52611328 89.69287109 7.02050781 C88.74234863 7.52936523 87.79182617 8.03822266 86.8125 8.5625 C79.4206142 12.55688053 72.10442904 16.63443152 64.88671875 20.93457031 C58.67970807 24.62358828 52.41177542 28.20267217 46.13635254 31.77359009 C42.51233902 33.83791463 38.89339838 35.91111961 35.27432251 37.98408508 C32.41497951 39.62122606 29.5530048 41.25316776 26.68603516 42.87695312 C23.65843492 44.59313793 20.64081724 46.32571583 17.625 48.0625 C16.73466064 48.56177002 15.84432129 49.06104004 14.92700195 49.57543945 C8.01856317 53.58841482 3.58598252 57.82803495 0 65 C0 43.55 0 22.1 0 0 Z " fill="#FEFEFE" transform="translate(0,0)"/>
<path d="M0 0 C6.30890005 4.06189455 11.65786412 8.86276996 15.28125 15.46875 C14.71019531 15.78924316 14.13914062 16.10973633 13.55078125 16.43994141 C1.20270794 23.37714396 -11.08934183 30.4005486 -23.3125 37.55566406 C-30.75295015 41.91074826 -38.21876355 46.21699712 -45.71875 50.46875 C-51.69953511 42.86577934 -51.47768801 34.2885028 -50.44140625 24.9765625 C-48.63116563 15.01161889 -42.33659676 7.41430749 -34.19921875 1.69921875 C-24.11387036 -4.19194919 -10.70924704 -5.1345705 0 0 Z " fill="#659AD1" transform="translate(121.71875,86.53125)"/>
<path d="M0 0 C2.66121571 0.78990413 4.83187277 1.78817245 7.25561523 3.13598633 C8.54435547 3.84851563 8.54435547 3.84851563 9.85913086 4.57543945 C10.74407227 5.07366211 11.62901367 5.57188477 12.54077148 6.08520508 C13.4218457 6.57182617 14.30291992 7.05844727 15.21069336 7.55981445 C19.81322457 10.12137302 24.27481641 12.77059703 28.60327148 15.77270508 C28.45830261 20.55667796 26.07952161 22.93213043 22.77905273 26.06176758 C13.70769847 33.19507668 3.95933145 34.70847875 -7.2434082 34.0378418 C-15.66863371 33.00045008 -22.25119892 27.59977286 -27.97094727 21.70239258 C-29.47257422 19.67005363 -29.86455342 18.2068607 -30.39672852 15.77270508 C-29.28430786 15.15226318 -29.28430786 15.15226318 -28.14941406 14.51928711 C-25.39251494 12.98088426 -22.63623634 11.44137708 -19.88037109 9.90112305 C-18.68856074 9.23531625 -17.49650562 8.56994739 -16.30419922 7.9050293 C-14.58830168 6.94801766 -12.87336238 5.98928856 -11.15844727 5.03051758 C-10.12679443 4.45446777 -9.0951416 3.87841797 -8.03222656 3.28491211 C-1.97997809 -0.18777219 -1.97997809 -0.18777219 0 0 Z " fill="#024582" transform="translate(106.396728515625,120.227294921875)"/>
<path d="M0 0 C2.64 0 5.28 0 8 0 C8 2.64 8 5.28 8 8 C10.64 8 13.28 8 16 8 C16 10.64 16 13.28 16 16 C13.36 16 10.72 16 8 16 C8 18.64 8 21.28 8 24 C5.36 24 2.72 24 0 24 C0 21.36 0 18.72 0 16 C-2.64 16 -5.28 16 -8 16 C-8 13.36 -8 10.72 -8 8 C-5.36 8 -2.72 8 0 8 C0 5.36 0 2.72 0 0 Z " fill="#F5F8FB" transform="translate(161,107)"/>
<path d="M0 0 C2.64 0 5.28 0 8 0 C8 2.64 8 5.28 8 8 C10.64 8 13.28 8 16 8 C16 10.64 16 13.28 16 16 C13.36 16 10.72 16 8 16 C8 18.64 8 21.28 8 24 C5.69 24 3.38 24 1 24 C1 21.36 1 18.72 1 16 C-1.64 16 -4.28 16 -7 16 C-7 13.36 -7 10.72 -7 8 C-4.69 8 -2.38 8 0 8 C0 5.36 0 2.72 0 0 Z " fill="#F8FAFC" transform="translate(190,107)"/>
</svg>
