<svg xmlns="http://www.w3.org/2000/svg" width="166" height="304" viewBox="0 0 166 304" version="1.1"><path d="M 105.500 11.672 C 105.500 25.448, 100.814 32.096, 78 50.685 C 71.125 56.287, 64.235 62.484, 62.690 64.457 C 53.320 76.416, 55.878 85.933, 73.164 103.432 L 83.109 113.500 76.076 102.688 C 68.338 90.790, 66.487 85.757, 67.401 79.091 C 68.308 72.477, 72.093 66.937, 81.257 58.810 C 102.421 40.041, 108.107 31.802, 108.714 19.025 C 108.985 13.323, 108.639 10.573, 107.286 7.672 L 105.500 3.844 105.500 11.672 M 116.483 49.340 C 95.556 57.962, 84.986 68.449, 85.010 80.566 C 85.021 86.169, 88.028 93.377, 92.855 99.370 C 97.945 105.690, 98.769 112.959, 94.920 117.597 C 94.204 118.460, 94.149 119, 94.777 119 C 96.919 119, 105.928 107.899, 106.572 104.468 C 107.471 99.677, 106.741 97.511, 101.596 89.689 C 95.737 80.784, 94.504 77.033, 95.972 72.584 C 97.779 67.109, 104.401 60.514, 115.638 53 C 121.396 49.150, 125.745 46.008, 125.303 46.018 C 124.862 46.028, 120.892 47.523, 116.483 49.340 M 137.157 113.995 C 131.441 115.347, 131.822 116.500, 137.984 116.500 C 143.127 116.500, 144.254 116.869, 146.922 119.425 C 154.992 127.157, 150.701 137.670, 135.221 148.093 C 129.704 151.808, 128.352 153.085, 130.484 152.568 C 136.293 151.160, 147.750 145.221, 151.911 141.461 C 157.309 136.584, 159 133.238, 159 127.432 C 159 123.367, 158.513 122.278, 155.227 118.992 C 153.127 116.892, 149.692 114.730, 147.477 114.115 C 143.023 112.879, 141.932 112.866, 137.157 113.995 M 48.500 116.484 C 40.355 118.001, 27.590 122.584, 25.926 124.589 C 21.161 130.330, 40.581 133.618, 73.966 132.722 C 98.457 132.065, 115.150 129.554, 122.061 125.487 C 126.024 123.155, 126.178 122.937, 123.500 123.458 C 104.162 127.217, 54.071 129.347, 44.577 126.814 C 41.869 126.091, 39.478 124.964, 39.263 124.309 C 38.764 122.785, 43.622 120.252, 52.500 117.406 C 60.370 114.884, 58.905 114.546, 48.500 116.484 M 45.500 141.298 C 42.526 142.983, 41.500 144.196, 41.500 146.032 C 41.500 151.824, 58.404 155.532, 81 154.698 C 95.137 154.176, 116.435 150.894, 118.450 148.927 C 119.046 148.346, 118.917 148, 118.104 148 C 117.392 148, 115.536 147.094, 113.980 145.986 C 111.215 144.017, 110.932 144.009, 101.326 145.610 C 95.777 146.535, 85.406 147.282, 77.500 147.327 C 54.905 147.454, 46.952 145.657, 49.758 141.061 C 51.363 138.434, 50.470 138.483, 45.500 141.298 M 52.432 162.510 C 37.262 169.171, 57.852 179.008, 84 177.593 C 94.228 177.039, 108.985 174.149, 113.258 171.862 C 115.242 170.800, 115.035 170.551, 110.067 168.034 C 104.872 165.402, 104.595 165.370, 97.627 166.618 C 84.319 169.002, 59.088 167.977, 55.383 164.903 C 54.317 164.018, 54.251 163.403, 55.110 162.367 C 56.443 160.761, 56.412 160.763, 52.432 162.510 M 25.251 177.545 C 19.503 179.093, 12.491 182.362, 9.750 184.771 C 4.960 188.982, 9.688 191.767, 25.559 194.085 C 62.838 199.529, 106.972 198.239, 134 190.914 C 146.801 187.445, 152.839 182.601, 148.673 179.143 C 147.635 178.282, 147.363 178.529, 147.423 180.271 C 147.685 187.831, 113.516 192.716, 67.500 191.697 C 37.300 191.028, 21 188.294, 21 183.898 C 21 182.532, 28.507 179.074, 34.760 177.558 L 40.500 176.167 35.500 176.149 C 32.750 176.139, 28.138 176.768, 25.251 177.545 M 157.091 190.390 C 153.397 194.841, 128.543 200.975, 105.643 203.088 C 93.638 204.195, 50.234 203.823, 41 202.534 C 37.596 202.059, 37.613 202.083, 41.629 203.424 C 53.603 207.423, 106.288 208.173, 126.500 204.633 C 142.996 201.744, 154.478 197.253, 157.617 192.461 C 159.426 189.702, 159.012 188.075, 157.091 190.390 M 13.976 250.750 C 13.963 267.113, 13.537 282.300, 13.028 284.500 C 12.409 287.181, 10.735 289.779, 7.953 292.378 L 3.802 296.257 6.318 298.772 L 8.833 301.288 13.390 298.617 C 16.295 296.915, 18.953 294.234, 20.723 291.223 L 23.500 286.500 23.812 253.750 L 24.124 221 19.062 221 L 14 221 13.976 250.750 M 38.688 238.618 C 34.341 239.954, 33.907 240.357, 34.188 242.798 C 34.426 244.859, 34.975 245.427, 36.500 245.193 C 37.600 245.025, 41.933 244.632, 46.129 244.322 C 52.992 243.814, 53.970 243.970, 55.879 245.879 C 57.315 247.315, 58 249.259, 58 251.899 L 58 255.797 51.007 256.499 C 42.570 257.347, 36.307 260.310, 33.258 264.898 C 29.111 271.138, 30.954 280.374, 36.967 283.483 C 41.578 285.868, 49.734 285.414, 54.852 282.488 C 60.091 279.493, 60 279.502, 60 282 C 60 283.667, 60.667 284, 64 284 L 68 284 67.998 265.750 C 67.997 244.983, 67.182 241.840, 61 238.752 C 56.650 236.578, 45.542 236.512, 38.688 238.618 M 74 238.040 C 74 238.574, 76.442 246.590, 84.118 271.250 L 88.086 284 94.017 284 C 99.478 284, 100.061 283.782, 101.364 281.250 C 105.051 274.086, 113.965 244.789, 113.991 239.750 C 113.998 238.325, 113.108 238, 109.204 238 L 104.407 238 103.189 245.250 C 101.588 254.781, 95.898 274.331, 95.024 273.304 C 94.647 272.862, 93.561 269.575, 92.610 266 C 91.660 262.425, 89.344 254.550, 87.464 248.500 L 84.045 237.500 79.022 237.500 C 76.260 237.500, 74 237.743, 74 238.040 M 126.262 238.705 C 121.361 240.150, 121.065 240.418, 121.653 242.875 C 122.492 246.380, 122.290 246.291, 126.656 245.078 C 128.770 244.491, 133.088 244.009, 136.250 244.006 C 143.406 243.999, 146 246.094, 146 251.884 L 146 255.767 139.250 256.470 C 126.565 257.792, 120.037 262.447, 119.269 270.717 C 119.024 273.348, 119.303 276.737, 119.887 278.250 C 122.508 285.028, 133.532 287.095, 142.581 282.504 C 145.286 281.131, 147.613 280.006, 147.750 280.004 C 147.887 280.002, 148 280.900, 148 282 C 148 283.673, 148.667 284, 152.076 284 L 156.153 284 155.826 264.750 C 155.463 243.322, 154.997 241.650, 148.540 238.586 C 144.286 236.567, 133.316 236.626, 126.262 238.705 M 158.079 239.583 C 158.127 240.748, 158.364 240.985, 158.683 240.188 C 158.972 239.466, 158.936 238.603, 158.604 238.271 C 158.272 237.939, 158.036 238.529, 158.079 239.583 M 160 239.500 C 160 240.325, 160.177 241, 160.393 241 C 160.609 241, 161.045 240.325, 161.362 239.500 C 161.678 238.675, 161.501 238, 160.969 238 C 160.436 238, 160 238.675, 160 239.500 M 48.209 262.984 C 46.399 263.413, 44.037 264.562, 42.959 265.537 C 40.390 267.862, 40.316 274.071, 42.829 276.345 C 45.298 278.580, 50.789 278.426, 54.750 276.011 C 57.837 274.129, 58 273.727, 58 268.015 L 58 262 54.750 262.102 C 52.962 262.159, 50.019 262.556, 48.209 262.984 M 136.500 262.929 C 131.457 264.146, 129.192 265.849, 128.515 268.933 C 127.872 271.861, 129.237 275.791, 131.400 277.235 C 133.494 278.633, 139.514 277.984, 142.750 276.011 C 145.837 274.129, 146 273.727, 146 268.015 L 146 262 142.750 262.102 C 140.963 262.159, 138.150 262.531, 136.500 262.929" stroke="none" fill="#5283a2" fill-rule="evenodd"/><path d="M -0 152.006 L -0 304.011 83.250 303.756 L 166.500 303.500 166.753 151.750 L 167.006 -0 83.503 -0 L 0 0 -0 152.006 M 0.487 152.500 C 0.487 236.100, 0.605 270.152, 0.750 228.171 C 0.894 186.191, 0.894 117.791, 0.750 76.171 C 0.605 34.552, 0.487 68.900, 0.487 152.500 M 105.500 11.672 C 105.500 25.448, 100.814 32.096, 78 50.685 C 71.125 56.287, 64.235 62.484, 62.690 64.457 C 53.320 76.416, 55.878 85.933, 73.164 103.432 L 83.109 113.500 76.076 102.688 C 68.338 90.790, 66.487 85.757, 67.401 79.091 C 68.308 72.477, 72.093 66.937, 81.257 58.810 C 102.421 40.041, 108.107 31.802, 108.714 19.025 C 108.985 13.323, 108.639 10.573, 107.286 7.672 L 105.500 3.844 105.500 11.672 M 116.483 49.340 C 95.556 57.962, 84.986 68.449, 85.010 80.566 C 85.021 86.169, 88.028 93.377, 92.855 99.370 C 97.945 105.690, 98.769 112.959, 94.920 117.597 C 94.204 118.460, 94.149 119, 94.777 119 C 96.919 119, 105.928 107.899, 106.572 104.468 C 107.471 99.677, 106.741 97.511, 101.596 89.689 C 95.737 80.784, 94.504 77.033, 95.972 72.584 C 97.779 67.109, 104.401 60.514, 115.638 53 C 121.396 49.150, 125.745 46.008, 125.303 46.018 C 124.862 46.028, 120.892 47.523, 116.483 49.340 M 137.157 113.995 C 131.441 115.347, 131.822 116.500, 137.984 116.500 C 143.127 116.500, 144.254 116.869, 146.922 119.425 C 154.992 127.157, 150.701 137.670, 135.221 148.093 C 129.704 151.808, 128.352 153.085, 130.484 152.568 C 136.293 151.160, 147.750 145.221, 151.911 141.461 C 157.309 136.584, 159 133.238, 159 127.432 C 159 123.367, 158.513 122.278, 155.227 118.992 C 153.127 116.892, 149.692 114.730, 147.477 114.115 C 143.023 112.879, 141.932 112.866, 137.157 113.995 M 48.500 116.484 C 40.355 118.001, 27.590 122.584, 25.926 124.589 C 21.161 130.330, 40.581 133.618, 73.966 132.722 C 98.457 132.065, 115.150 129.554, 122.061 125.487 C 126.024 123.155, 126.178 122.937, 123.500 123.458 C 104.162 127.217, 54.071 129.347, 44.577 126.814 C 41.869 126.091, 39.478 124.964, 39.263 124.309 C 38.764 122.785, 43.622 120.252, 52.500 117.406 C 60.370 114.884, 58.905 114.546, 48.500 116.484 M 45.500 141.298 C 42.526 142.983, 41.500 144.196, 41.500 146.032 C 41.500 151.824, 58.404 155.532, 81 154.698 C 95.137 154.176, 116.435 150.894, 118.450 148.927 C 119.046 148.346, 118.917 148, 118.104 148 C 117.392 148, 115.536 147.094, 113.980 145.986 C 111.215 144.017, 110.932 144.009, 101.326 145.610 C 95.777 146.535, 85.406 147.282, 77.500 147.327 C 54.905 147.454, 46.952 145.657, 49.758 141.061 C 51.363 138.434, 50.470 138.483, 45.500 141.298 M 52.432 162.510 C 37.262 169.171, 57.852 179.008, 84 177.593 C 94.228 177.039, 108.985 174.149, 113.258 171.862 C 115.242 170.800, 115.035 170.551, 110.067 168.034 C 104.872 165.402, 104.595 165.370, 97.627 166.618 C 84.319 169.002, 59.088 167.977, 55.383 164.903 C 54.317 164.018, 54.251 163.403, 55.110 162.367 C 56.443 160.761, 56.412 160.763, 52.432 162.510 M 25.251 177.545 C 19.503 179.093, 12.491 182.362, 9.750 184.771 C 4.960 188.982, 9.688 191.767, 25.559 194.085 C 62.838 199.529, 106.972 198.239, 134 190.914 C 146.801 187.445, 152.839 182.601, 148.673 179.143 C 147.635 178.282, 147.363 178.529, 147.423 180.271 C 147.685 187.831, 113.516 192.716, 67.500 191.697 C 37.300 191.028, 21 188.294, 21 183.898 C 21 182.532, 28.507 179.074, 34.760 177.558 L 40.500 176.167 35.500 176.149 C 32.750 176.139, 28.138 176.768, 25.251 177.545 M 157.091 190.390 C 153.397 194.841, 128.543 200.975, 105.643 203.088 C 93.638 204.195, 50.234 203.823, 41 202.534 C 37.596 202.059, 37.613 202.083, 41.629 203.424 C 53.603 207.423, 106.288 208.173, 126.500 204.633 C 142.996 201.744, 154.478 197.253, 157.617 192.461 C 159.426 189.702, 159.012 188.075, 157.091 190.390 M 13.976 250.750 C 13.963 267.113, 13.537 282.300, 13.028 284.500 C 12.409 287.181, 10.735 289.779, 7.953 292.378 L 3.802 296.257 6.318 298.772 L 8.833 301.288 13.390 298.617 C 16.295 296.915, 18.953 294.234, 20.723 291.223 L 23.500 286.500 23.812 253.750 L 24.124 221 19.062 221 L 14 221 13.976 250.750 M 38.688 238.618 C 34.341 239.954, 33.907 240.357, 34.188 242.798 C 34.426 244.859, 34.975 245.427, 36.500 245.193 C 37.600 245.025, 41.933 244.632, 46.129 244.322 C 52.992 243.814, 53.970 243.970, 55.879 245.879 C 57.315 247.315, 58 249.259, 58 251.899 L 58 255.797 51.007 256.499 C 42.570 257.347, 36.307 260.310, 33.258 264.898 C 29.111 271.138, 30.954 280.374, 36.967 283.483 C 41.578 285.868, 49.734 285.414, 54.852 282.488 C 60.091 279.493, 60 279.502, 60 282 C 60 283.667, 60.667 284, 64 284 L 68 284 67.998 265.750 C 67.997 244.983, 67.182 241.840, 61 238.752 C 56.650 236.578, 45.542 236.512, 38.688 238.618 M 74 238.040 C 74 238.574, 76.442 246.590, 84.118 271.250 L 88.086 284 94.017 284 C 99.478 284, 100.061 283.782, 101.364 281.250 C 105.051 274.086, 113.965 244.789, 113.991 239.750 C 113.998 238.325, 113.108 238, 109.204 238 L 104.407 238 103.189 245.250 C 101.588 254.781, 95.898 274.331, 95.024 273.304 C 94.647 272.862, 93.561 269.575, 92.610 266 C 91.660 262.425, 89.344 254.550, 87.464 248.500 L 84.045 237.500 79.022 237.500 C 76.260 237.500, 74 237.743, 74 238.040 M 126.262 238.705 C 121.361 240.150, 121.065 240.418, 121.653 242.875 C 122.492 246.380, 122.290 246.291, 126.656 245.078 C 128.770 244.491, 133.088 244.009, 136.250 244.006 C 143.406 243.999, 146 246.094, 146 251.884 L 146 255.767 139.250 256.470 C 126.565 257.792, 120.037 262.447, 119.269 270.717 C 119.024 273.348, 119.303 276.737, 119.887 278.250 C 122.508 285.028, 133.532 287.095, 142.581 282.504 C 145.286 281.131, 147.613 280.006, 147.750 280.004 C 147.887 280.002, 148 280.900, 148 282 C 148 283.673, 148.667 284, 152.076 284 L 156.153 284 155.826 264.750 C 155.463 243.322, 154.997 241.650, 148.540 238.586 C 144.286 236.567, 133.316 236.626, 126.262 238.705 M 158.079 239.583 C 158.127 240.748, 158.364 240.985, 158.683 240.188 C 158.972 239.466, 158.936 238.603, 158.604 238.271 C 158.272 237.939, 158.036 238.529, 158.079 239.583 M 160 239.500 C 160 240.325, 160.177 241, 160.393 241 C 160.609 241, 161.045 240.325, 161.362 239.500 C 161.678 238.675, 161.501 238, 160.969 238 C 160.436 238, 160 238.675, 160 239.500 M 48.209 262.984 C 46.399 263.413, 44.037 264.562, 42.959 265.537 C 40.390 267.862, 40.316 274.071, 42.829 276.345 C 45.298 278.580, 50.789 278.426, 54.750 276.011 C 57.837 274.129, 58 273.727, 58 268.015 L 58 262 54.750 262.102 C 52.962 262.159, 50.019 262.556, 48.209 262.984 M 136.500 262.929 C 131.457 264.146, 129.192 265.849, 128.515 268.933 C 127.872 271.861, 129.237 275.791, 131.400 277.235 C 133.494 278.633, 139.514 277.984, 142.750 276.011 C 145.837 274.129, 146 273.727, 146 268.015 L 146 262 142.750 262.102 C 140.963 262.159, 138.150 262.531, 136.500 262.929" stroke="none" fill="#fafafa" fill-rule="evenodd"/></svg>