<?xml version="1.0" standalone="no"?>
<!DOCTYPE svg PUBLIC "-//W3C//DTD SVG 20010904//EN"
 "http://www.w3.org/TR/2001/REC-SVG-20010904/DTD/svg10.dtd">
<svg version="1.0" xmlns="http://www.w3.org/2000/svg"
 width="166.000000pt" height="304.000000pt" viewBox="0 0 166.000000 304.000000"
 preserveAspectRatio="xMidYMid meet">
<metadata>
Created by potrace 1.16, written by Peter Selinger 2001-2019
</metadata>
<g transform="translate(0.000000,304.000000) scale(0.100000,-0.100000)"
fill="#000000" stroke="none">
<path d="M1355 1889 c-16 -8 -15 -8 8 -4 41 8 112 -27 131 -64 45 -87 -13
-188 -158 -275 -71 -43 -67 -45 22 -9 144 57 220 128 229 215 6 53 -25 104
-77 130 -38 19 -122 23 -155 7z"/>
<path d="M431 1860 c-97 -26 -181 -65 -181 -84 0 -34 198 -65 410 -66 213 0
489 36 545 71 17 10 27 19 24 19 -3 0 -53 -7 -111 -15 -326 -46 -728 -37 -728
15 0 15 45 41 107 60 77 25 29 24 -66 0z"/>
<path d="M454 1621 c-43 -26 -49 -39 -29 -61 71 -78 458 -89 715 -20 l41 11
-34 23 c-33 23 -34 23 -118 8 -119 -21 -462 -22 -504 -1 -20 10 -30 22 -29 37
1 27 -3 27 -42 3z"/>
<path d="M509 1405 c-92 -50 7 -115 203 -135 126 -12 307 10 415 51 27 10 26
10 -28 35 -51 24 -58 25 -129 15 -150 -21 -168 -22 -279 -11 -120 11 -156 22
-147 46 7 17 -2 17 -35 -1z"/>
<path d="M270 1265 c-77 -19 -141 -48 -168 -78 -21 -22 -22 -26 -7 -40 9 -9
33 -21 53 -26 148 -40 630 -63 859 -42 305 29 513 95 489 157 -8 18 -8 18 -16
-3 -25 -63 -174 -94 -537 -113 -359 -18 -733 20 -733 76 0 21 46 47 119 66 52
13 59 17 31 17 -19 -1 -60 -7 -90 -14z"/>
<path d="M1530 1109 c-69 -36 -227 -74 -395 -95 -140 -17 -456 -23 -620 -12
-141 10 -64 -8 100 -23 161 -15 490 -6 634 16 156 24 255 59 305 106 48 45 48
46 -24 8z"/>
<path d="M140 526 c0 -167 -3 -318 -7 -336 -3 -19 -23 -50 -45 -72 -38 -38
-39 -40 -24 -63 19 -30 41 -24 97 23 72 61 72 67 77 430 l4 322 -51 0 -51 0 0
-304z"/>
<path d="M401 654 c-30 -8 -57 -16 -58 -18 -2 -2 -1 -15 2 -28 l6 -25 65 15
c112 25 162 1 171 -83 l6 -45 -59 0 c-113 0 -190 -38 -212 -105 -37 -112 55
-199 177 -166 24 6 56 21 71 31 l28 20 6 -25 c5 -21 12 -25 42 -25 l36 0 -4
188 c-3 130 -8 195 -18 214 -30 61 -142 84 -259 52z m189 -293 c0 -58 -1 -60
-37 -82 -73 -45 -153 -20 -153 48 0 59 48 92 138 93 l52 0 0 -59z"/>
<path d="M1281 654 c-66 -18 -65 -17 -57 -47 6 -24 6 -24 63 -10 67 16 134 9
156 -15 8 -9 17 -37 18 -62 l4 -45 -75 -6 c-89 -8 -139 -26 -168 -64 -50 -63
-36 -163 28 -196 51 -28 108 -24 174 10 l56 30 0 -25 c0 -21 5 -24 35 -24 l35
0 0 194 c0 183 -1 195 -22 221 -43 55 -135 69 -247 39z m179 -298 l0 -64 -45
-22 c-71 -34 -135 -7 -135 58 0 57 49 91 133 92 l47 0 0 -64z"/>
<path d="M759 603 c10 -32 42 -136 71 -231 l53 -172 58 0 c58 0 59 0 75 38 41
95 124 372 124 415 0 4 -20 7 -45 7 -49 0 -44 8 -65 -100 -14 -76 -71 -270
-79 -270 -3 0 -13 30 -22 68 -9 37 -33 120 -53 185 l-37 117 -49 0 -48 0 17
-57z"/>
</g>
</svg>
